<svg width="53" height="54" viewBox="0 0 53 54" fill="none" xmlns="http://www.w3.org/2000/svg">
<path fill-rule="evenodd" clip-rule="evenodd" d="M18.2112 19.8325H22.4951V18.5637C22.4951 16.8507 23.1954 15.294 24.3235 14.1659C25.4517 13.0377 27.0085 12.3374 28.7213 12.3374C30.4342 12.3374 31.991 13.0377 33.1191 14.1659C34.2473 15.294 34.9475 16.8508 34.9475 18.5637V19.8325H38.4288V18.5637C38.4288 17.2133 37.8759 15.985 36.9851 15.0942C36.3209 14.4301 35.4692 13.9539 34.5191 13.7545C34.0768 13.2223 33.5641 12.7529 32.995 12.3593C33.1681 12.3448 33.3418 12.3375 33.5155 12.3374C35.2285 12.3374 36.7852 13.0377 37.9133 14.1659C39.0415 15.2941 39.7418 16.8508 39.7418 18.5637V19.8325H40.9562L43.1464 46.0997H14.8132L17.0669 20.8792C17.0918 20.593 17.2232 20.3267 17.4351 20.1329C17.647 19.9391 17.924 19.8319 18.2112 19.8325ZM12.9711 52.3854C12.7748 51.9552 12.6934 51.4795 12.7372 50.989L15.4406 20.7339C15.5689 19.2978 16.7691 18.1999 18.2111 18.1999H20.8708C20.8881 17.8264 20.932 17.4571 21.0013 17.094C20.5576 15.3665 18.7872 14.3423 16.8091 13.8515C12.967 12.8983 9.07251 12.8339 5.11553 13.8515C2.8326 14.4386 0.816406 15.6998 0.816406 17.959V30.2791C0.816406 31.8856 1.79476 33.284 3.21004 33.9582V20.0843C3.21004 19.9592 3.23469 19.8353 3.28256 19.7197C3.33043 19.6041 3.40061 19.4991 3.48907 19.4107C3.57753 19.3222 3.68255 19.252 3.79812 19.2041C3.9137 19.1563 4.03758 19.1316 4.16268 19.1316C4.28779 19.1316 4.41166 19.1563 4.52724 19.2041C4.64282 19.252 4.74784 19.3222 4.8363 19.4107C4.92476 19.4991 4.99493 19.6041 5.04281 19.7197C5.09068 19.8353 5.11532 19.9592 5.11532 20.0843V51.1945C5.11532 51.8504 5.65032 52.3854 6.30612 52.3854H10.1705V35.6432C10.1731 35.3923 10.2746 35.1525 10.4529 34.9759C10.6313 34.7994 10.8722 34.7003 11.1231 34.7003C11.3741 34.7003 11.615 34.7994 11.7933 34.9759C11.9717 35.1525 12.0732 35.3923 12.0758 35.6432V52.3854H12.9711ZM10.9623 1.77393C8.46976 1.77393 6.44918 3.19431 6.44918 6.47018C6.44918 9.74605 8.46976 12.4017 10.9623 12.4017C13.4547 12.4017 15.4754 9.74605 15.4754 6.47018C15.4754 3.19431 13.4547 1.77393 10.9623 1.77393ZM27.2893 19.8325V18.5637C27.2893 17.2299 27.7139 15.9909 28.4345 14.9751C28.9515 14.9333 29.4714 15.0049 29.958 15.1846C29.119 16.0673 28.6023 17.2583 28.6023 18.5637V19.8325H33.6344V18.5637C33.6344 17.2133 33.0814 15.985 32.1906 15.0942C31.2998 14.2034 30.0717 13.6505 28.7212 13.6505C27.3708 13.6505 26.1426 14.2034 25.2518 15.0942C24.361 15.985 23.808 17.2132 23.808 18.5637V19.8325H27.2893ZM23.8081 24.7522C23.8051 24.9243 23.7346 25.0883 23.6118 25.209C23.489 25.3296 23.3237 25.3972 23.1516 25.3972C22.9794 25.3972 22.8142 25.3296 22.6914 25.209C22.5686 25.0883 22.4981 24.9243 22.4951 24.7522V22.8948C21.7301 23.1652 21.182 23.8946 21.182 24.7522C21.182 25.8399 22.0637 26.7217 23.1516 26.7217C24.2394 26.7217 25.1212 25.8399 25.1212 24.7522C25.1212 23.8946 24.573 23.1651 23.8081 22.8948V24.7522ZM34.9475 23.0897V24.7522C34.9445 24.9243 34.874 25.0883 34.7512 25.209C34.6284 25.3296 34.4632 25.3972 34.291 25.3972C34.1189 25.3972 33.9536 25.3296 33.8308 25.209C33.708 25.0883 33.6375 24.9243 33.6345 24.7522V23.0897C32.9725 23.3514 32.5041 23.9971 32.5041 24.7522C32.5041 25.7391 33.3041 26.5391 34.291 26.5391C35.2779 26.5391 36.0779 25.7391 36.0779 24.7522C36.0779 23.9971 35.6096 23.3514 34.9475 23.0897ZM42.2732 19.8325L44.8475 50.7061L46.7717 48.0486C45.6167 38.6433 44.4625 29.2377 43.3068 19.8325H42.2732ZM43.6665 52.3371L43.6315 52.3854H15.5077C15.1733 52.3854 14.8856 52.2587 14.66 52.012C14.4343 51.7652 14.3337 51.4674 14.3634 51.1343L14.6959 47.4126H43.2559L43.6665 52.3371ZM44.6291 19.8325H45.4262C45.9891 19.8325 46.4607 20.2288 46.5579 20.7833L51.4105 48.5047C51.4216 48.5678 51.4273 48.6308 51.4281 48.6929L48.0532 47.7159L44.6291 19.8325ZM50.5966 49.8141L45.6395 51.8478L47.7158 48.9802L50.5966 49.8141Z" fill="url(#paint0_linear_443_718)"/>
<defs>
<linearGradient id="paint0_linear_443_718" x1="0.816406" y1="27.0797" x2="51.4281" y2="27.0797" gradientUnits="userSpaceOnUse">
<stop stop-color="#0E47A1"/>
<stop offset="1" stop-color="#0E6AFB"/>
</linearGradient>
</defs>
</svg>
