<svg width="20" height="21" viewBox="0 0 20 21" fill="none" xmlns="http://www.w3.org/2000/svg">
<path d="M2.1875 5.1875C2.1875 4.93886 2.28627 4.7004 2.46209 4.52459C2.6379 4.34877 2.87636 4.25 3.125 4.25H16.875C17.1236 4.25 17.3621 4.34877 17.5379 4.52459C17.7137 4.7004 17.8125 4.93886 17.8125 5.1875C17.8125 5.43614 17.7137 5.6746 17.5379 5.85041C17.3621 6.02623 17.1236 6.125 16.875 6.125H3.125C2.87636 6.125 2.6379 6.02623 2.46209 5.85041C2.28627 5.6746 2.1875 5.43614 2.1875 5.1875ZM4.6875 10.1875C4.6875 9.93886 4.78627 9.7004 4.96209 9.52459C5.1379 9.34877 5.37636 9.25 5.625 9.25H14.375C14.6236 9.25 14.8621 9.34877 15.0379 9.52459C15.2137 9.7004 15.3125 9.93886 15.3125 10.1875C15.3125 10.4361 15.2137 10.6746 15.0379 10.8504C14.8621 11.0262 14.6236 11.125 14.375 11.125H5.625C5.37636 11.125 5.1379 11.0262 4.96209 10.8504C4.78627 10.6746 4.6875 10.4361 4.6875 10.1875ZM7.1875 15.1875C7.1875 14.9389 7.28627 14.7004 7.46209 14.5246C7.6379 14.3488 7.87636 14.25 8.125 14.25H11.875C12.1236 14.25 12.3621 14.3488 12.5379 14.5246C12.7137 14.7004 12.8125 14.9389 12.8125 15.1875C12.8125 15.4361 12.7137 15.6746 12.5379 15.8504C12.3621 16.0262 12.1236 16.125 11.875 16.125H8.125C7.87636 16.125 7.6379 16.0262 7.46209 15.8504C7.28627 15.6746 7.1875 15.4361 7.1875 15.1875Z" fill="black"/>
</svg>
