<svg width="22" height="22" viewBox="0 0 22 22" fill="none" xmlns="http://www.w3.org/2000/svg">
<path d="M21.6221 18.7949L17.5205 14.6934C17.3154 14.5293 17.0693 14.4062 16.8232 14.4062H16.167C17.2744 12.9707 17.9717 11.166 17.9717 9.15625C17.9717 4.48047 14.1162 0.625 9.44043 0.625C4.72363 0.625 0.90918 4.48047 0.90918 9.15625C0.90918 13.873 4.72363 17.6875 9.44043 17.6875C11.4092 17.6875 13.2139 17.0312 14.6904 15.8828V16.5801C14.6904 16.8262 14.7725 17.0723 14.9775 17.2773L19.0381 21.3379C19.4482 21.748 20.0635 21.748 20.4326 21.3379L21.5811 20.1895C21.9912 19.8203 21.9912 19.2051 21.6221 18.7949ZM9.44043 14.4062C6.52832 14.4062 4.19043 12.0684 4.19043 9.15625C4.19043 6.28516 6.52832 3.90625 9.44043 3.90625C12.3115 3.90625 14.6904 6.28516 14.6904 9.15625C14.6904 12.0684 12.3115 14.4062 9.44043 14.4062Z" fill="white"/>
</svg>
