<svg width="56" height="56" viewBox="0 0 56 56" fill="none" xmlns="http://www.w3.org/2000/svg">
<path d="M50.4639 37.5449V21.1137C51.5029 20.5138 52.3669 19.6524 52.97 18.6152C53.573 17.578 53.8941 16.401 53.9014 15.2012C53.8991 14.8135 53.7659 14.4379 53.5232 14.1355L48.1951 7.4668C47.5515 6.66286 46.7354 6.0138 45.8072 5.56756C44.8791 5.12132 43.8625 4.88932 42.8326 4.88867H13.4076C12.3778 4.88932 11.3612 5.12132 10.433 5.56756C9.50484 6.0138 8.68878 6.66286 8.04512 7.4668L2.71699 14.1355C2.47437 14.4379 2.34112 14.8135 2.33887 15.2012C2.34611 16.401 2.66721 17.578 3.27026 18.6152C3.8733 19.6524 4.73729 20.5138 5.77637 21.1137V44.4199C5.77637 44.8758 5.95745 45.3129 6.27978 45.6353C6.60211 45.9576 7.03928 46.1387 7.49512 46.1387H36.8857C37.1643 47.502 37.7697 48.7772 38.65 49.8549C39.5302 50.9325 40.659 51.7803 41.9393 52.3254C43.2195 52.8704 44.613 53.0964 45.9999 52.984C47.3868 52.8716 48.7257 52.4241 49.9015 51.6799C51.0772 50.9358 52.0547 49.9172 52.7499 48.7119C53.4451 47.5065 53.8372 46.1504 53.8925 44.76C53.9478 43.3697 53.6647 41.9867 53.0675 40.7299C52.4703 39.4731 51.5768 38.3801 50.4639 37.5449ZM9.21387 22.0762C10.9709 22.0786 12.6622 21.4082 13.9404 20.2027C15.2173 21.4115 16.9087 22.0852 18.667 22.0852C20.4253 22.0852 22.1167 21.4115 23.3936 20.2027C24.6704 21.4115 26.3618 22.0852 28.1201 22.0852C29.8784 22.0852 31.5698 21.4115 32.8467 20.2027C34.1235 21.4115 35.815 22.0852 37.5732 22.0852C39.3315 22.0852 41.023 21.4115 42.2998 20.2027C43.578 21.4082 45.2693 22.0786 47.0264 22.0762V35.998C45.9204 35.7721 44.7807 35.7663 43.6725 35.9809C42.5642 36.1955 41.5091 36.6263 40.5674 37.2488C39.6257 37.8713 38.8159 38.6732 38.1842 39.6087C37.5524 40.5443 37.1112 41.5951 36.8857 42.7012H9.21387V22.0762ZM45.3076 49.5762C44.2878 49.5762 43.2909 49.2738 42.443 48.7072C41.595 48.1406 40.9341 47.3353 40.5439 46.3931C40.1536 45.451 40.0515 44.4142 40.2504 43.414C40.4494 42.4138 40.9405 41.495 41.6616 40.7739C42.3827 40.0528 43.3015 39.5617 44.3017 39.3627C45.3019 39.1638 46.3386 39.2659 47.2808 39.6562C48.223 40.0464 49.0283 40.7073 49.5949 41.5553C50.1615 42.4032 50.4639 43.4001 50.4639 44.4199C50.4639 45.7874 49.9206 47.099 48.9536 48.0659C47.9867 49.0329 46.6751 49.5762 45.3076 49.5762Z" fill="url(#paint0_linear_443_736)"/>
<path d="M45.3076 45.6451C46.2569 45.6451 47.0264 44.8756 47.0264 43.9264C47.0264 42.9772 46.2569 42.2076 45.3076 42.2076C44.3584 42.2076 43.5889 42.9772 43.5889 43.9264C43.5889 44.8756 44.3584 45.6451 45.3076 45.6451Z" fill="url(#paint1_linear_443_736)"/>
<defs>
<linearGradient id="paint0_linear_443_736" x1="2.33887" y1="28.9504" x2="53.9014" y2="28.9504" gradientUnits="userSpaceOnUse">
<stop stop-color="#3DB2A2"/>
<stop offset="1" stop-color="#008767"/>
</linearGradient>
<linearGradient id="paint1_linear_443_736" x1="43.5889" y1="43.9264" x2="47.0264" y2="43.9264" gradientUnits="userSpaceOnUse">
<stop stop-color="#3DB2A2"/>
<stop offset="1" stop-color="#008767"/>
</linearGradient>
</defs>
</svg>
