<svg width="20" height="21" viewBox="0 0 20 21" fill="none" xmlns="http://www.w3.org/2000/svg">
<path d="M9.75 12.0234C11.8479 12.0234 13.8948 12.5784 15.5596 13.5918L15.8877 13.8008C17.702 15.0104 18.8969 16.7016 19.3643 18.7109L19.4482 19.1172C19.5268 19.5518 19.4435 19.9815 19.2207 20.3223L19.1162 20.4629C19.0141 20.5853 18.8927 20.6896 18.7568 20.7715L18.6162 20.8457C18.4234 20.9344 18.2132 20.9792 18.001 20.9766H1.5C1.34079 20.9786 1.18269 20.9541 1.03223 20.9043L0.883789 20.8457C0.738992 20.7791 0.60673 20.6889 0.492188 20.5791L0.383789 20.4629C0.121572 20.1493 -0.00446865 19.735 0.0283203 19.3037L0.0527344 19.1182C0.422538 17.0667 1.52709 15.3224 3.25879 14.0488L3.61328 13.8008C5.33311 12.6547 7.51229 12.0235 9.75 12.0234ZM9.75 0.0234375C11.0625 0.0234375 12.2592 0.497666 13.1514 1.36426L13.3252 1.54297C14.1865 2.47292 14.6343 3.70498 14.5996 5.03613L14.5859 5.30371C14.3751 8.15903 12.2065 10.4766 9.75 10.4766C7.37017 10.4764 5.25665 8.3008 4.93848 5.56836L4.91406 5.30273C4.81603 3.94687 5.20114 2.68606 6.00195 1.72266L6.16699 1.53418C7.07018 0.560579 8.34245 0.0235056 9.75 0.0234375Z" fill="url(#paint0_linear_9_83)" stroke="white" stroke-width="0.046875"/>
<defs>
<linearGradient id="paint0_linear_9_83" x1="0" y1="10.5001" x2="19.5005" y2="10.5001" gradientUnits="userSpaceOnUse">
<stop stop-color="#3DB2A2"/>
<stop offset="1" stop-color="#008767"/>
</linearGradient>
</defs>
</svg>
