<svg width="37" height="30" viewBox="0 0 37 30" fill="none" xmlns="http://www.w3.org/2000/svg">
<path d="M24.9133 21.3016L18.6119 15.0002L12.3105 21.3016" stroke="black" stroke-opacity="0.4" stroke-width="1.57534" stroke-linecap="round" stroke-linejoin="round"/>
<path d="M18.6152 15.0002V29.1783" stroke="black" stroke-opacity="0.4" stroke-width="1.57534" stroke-linecap="round" stroke-linejoin="round"/>
<path d="M31.8316 25.0665C33.3681 24.2289 34.5819 22.9034 35.2814 21.2993C35.9809 19.6952 36.1263 17.9038 35.6946 16.2079C35.263 14.512 34.2788 13.0081 32.8976 11.9336C31.5163 10.8591 29.8165 10.2752 28.0665 10.2741H26.0816C25.6048 8.42975 24.716 6.7175 23.4822 5.26608C22.2484 3.81465 20.7016 2.66182 18.9581 1.89424C17.2146 1.12667 15.3197 0.764334 13.416 0.834474C11.5123 0.904614 9.64932 1.4054 7.96703 2.2992C6.28475 3.19299 4.82697 4.45653 3.70329 5.99481C2.57962 7.5331 1.81929 9.30611 1.47948 11.1805C1.13966 13.055 1.2292 14.982 1.74135 16.8169C2.25351 18.6517 3.17496 20.3466 4.43642 21.7741" stroke="black" stroke-opacity="0.4" stroke-width="1.57534" stroke-linecap="round" stroke-linejoin="round"/>
<path d="M24.9133 21.3016L18.6119 15.0002L12.3105 21.3016" stroke="black" stroke-opacity="0.4" stroke-width="1.57534" stroke-linecap="round" stroke-linejoin="round"/>
</svg>
