<svg width="81" height="75" viewBox="0 0 81 75" fill="none" xmlns="http://www.w3.org/2000/svg">
<path fill-rule="evenodd" clip-rule="evenodd" d="M51.9391 16.5045C52.4094 15.0757 52.9654 13.6649 53.5213 12.2541C53.584 11.9108 53.6531 11.5769 53.7207 11.2508C53.8665 10.5471 54.0049 9.87935 54.0537 9.23037C54.0895 8.7555 53.7778 7.88609 53.4351 7.81414C52.921 7.7062 51.9629 7.90705 51.6046 8.23382C50.6559 9.07982 49.6668 10.0781 49.0204 11.1484C46.9551 14.4934 45.0611 17.8745 43.2326 21.3496C42.1517 23.3738 41.4992 25.488 41.8095 27.7238C42.02 28.974 42.5483 30.0496 44.0906 30.3734C45.633 30.6972 46.7328 29.9634 47.4648 28.9111C48.1767 27.935 48.6517 26.8288 49.041 25.7045C49.5417 24.1615 50.0159 22.633 50.49 21.1045C50.9642 19.576 51.4384 18.0476 51.9391 16.5045ZM26.8491 64.9424C26.8383 65.6637 26.8929 66.4791 28.052 66.8832C28.2433 66.5047 28.4387 66.1239 28.6357 65.7401L28.636 65.7396C29.4224 64.2075 30.2325 62.6289 30.8913 60.9672C32.9783 56.1795 34.8939 51.3559 36.8095 46.5322C37.0773 45.8649 37.1941 45.0854 37.2049 44.3641C37.0956 42.7332 35.9473 41.6078 34.4299 41.5304C32.9125 41.453 31.9638 42.299 31.5185 43.9743C31.0779 45.9721 30.5313 48.0281 30.005 50.0079C29.7209 51.0766 29.4272 52.1434 29.1343 53.2073L29.1342 53.2075L29.1342 53.2077C28.5506 55.3274 27.9702 57.4357 27.4747 59.5263C27.0867 60.9858 26.9962 62.5077 26.9057 64.0297C26.8877 64.3341 26.8696 64.6385 26.8491 64.9424ZM72.0515 45.3283C71.6143 45.3232 71.1679 45.3277 70.7185 45.3323C69.4993 45.3448 68.2578 45.3575 67.116 45.1766L66.2754 45.0721C59.9943 44.292 53.7867 43.5209 47.5376 42.5938C46.4891 42.4541 45.3502 41.9738 44.5089 41.3952C43.345 40.6684 43.7546 39.4681 45.0959 39.1869C45.8624 39.0262 46.674 39.0358 47.3595 39.1797C55.5605 40.6603 63.721 42.2931 71.6993 44.6112C71.8707 44.6472 72.0218 44.7593 72.1729 44.8715L72.0515 45.3283ZM30.7763 32.1338C31.7962 32.2676 32.8161 32.4013 33.8293 32.5604C33.8698 32.4081 33.9103 32.2558 34.0567 32.0453C33.7241 31.9353 33.4179 31.8108 33.1118 31.6862C32.8056 31.5616 32.4995 31.437 32.1669 31.327C29.2059 30.3838 26.2664 29.4451 23.327 28.5064C20.3875 27.5677 17.448 26.629 14.4871 25.6858C13.9831 25.5398 13.4841 25.3747 12.9852 25.2097C12.4862 25.0446 11.9873 24.8796 11.4833 24.7336C10.6264 24.5537 9.85997 24.7144 9.48616 25.4399C9.09212 26.2415 9.4443 26.9586 10.2404 27.367C10.7998 27.6452 11.4448 27.9414 12.1303 28.0853C13.1456 28.3377 14.1648 28.5957 15.1865 28.8544C18.3495 29.6552 21.5372 30.4622 24.7107 31.1284C26.6966 31.5989 28.7364 31.8664 30.7763 32.1338Z" fill="url(#paint0_linear_6_379)"/>
<defs>
<linearGradient id="paint0_linear_6_379" x1="8.10712" y1="30.497" x2="71.5133" y2="47.3527" gradientUnits="userSpaceOnUse">
<stop stop-color="#3DB2A2"/>
<stop offset="1" stop-color="#008767"/>
</linearGradient>
</defs>
</svg>
