<svg width="81" height="75" viewBox="0 0 81 75" fill="none" xmlns="http://www.w3.org/2000/svg">
<path fill-rule="evenodd" clip-rule="evenodd" d="M29.0611 16.5045C28.5908 15.0757 28.0348 13.6649 27.4788 12.2541C27.4162 11.9108 27.3471 11.5769 27.2795 11.2508C27.1337 10.5471 26.9953 9.87935 26.9464 9.23037C26.9107 8.7555 27.2224 7.88609 27.5651 7.81414C28.0792 7.7062 29.0373 7.90705 29.3956 8.23382C30.3442 9.07982 31.3334 10.0781 31.9798 11.1484C34.0451 14.4934 35.9391 17.8745 37.7676 21.3496C38.8485 23.3738 39.501 25.488 39.1907 27.7238C38.9802 28.974 38.4519 30.0496 36.9096 30.3734C35.3672 30.6972 34.2674 29.9634 33.5354 28.9111C32.8235 27.935 32.3485 26.8288 31.9592 25.7045C31.4585 24.1615 30.9843 22.633 30.5101 21.1045C30.036 19.576 29.5618 18.0476 29.0611 16.5045ZM54.1511 64.9424C54.1619 65.6637 54.1073 66.4791 52.9481 66.8832C52.7569 66.5047 52.5614 66.1239 52.3645 65.7401L52.3642 65.7396C51.5778 64.2075 50.7676 62.6289 50.1089 60.9672C48.0219 56.1795 46.1063 51.3559 44.1907 46.5322C43.9229 45.8649 43.8061 45.0854 43.7953 44.3641C43.9046 42.7332 45.0529 41.6078 46.5703 41.5304C48.0877 41.453 49.0363 42.299 49.4817 43.9743C49.9223 45.9721 50.4689 48.0281 50.9952 50.0079C51.2793 51.0766 51.573 52.1434 51.8659 53.2073L51.8659 53.2075L51.866 53.2077C52.4496 55.3274 53.03 57.4357 53.5255 59.5263C53.9135 60.9858 54.004 62.5077 54.0944 64.0297C54.1125 64.3341 54.1306 64.6385 54.1511 64.9424ZM8.94869 45.3283C9.38593 45.3232 9.83232 45.3277 10.2818 45.3323C11.5009 45.3448 12.7424 45.3575 13.8841 45.1766L14.7248 45.0721C21.0059 44.292 27.2135 43.5209 33.4626 42.5938C34.5111 42.4541 35.65 41.9738 36.4913 41.3952C37.6552 40.6684 37.2456 39.4681 35.9043 39.1869C35.1378 39.0262 34.3262 39.0358 33.6407 39.1797C25.4397 40.6603 17.2792 42.2931 9.30087 44.6112C9.1295 44.6472 8.97836 44.7593 8.82723 44.8715L8.94869 45.3283ZM50.2239 32.1338C49.204 32.2676 48.1841 32.4013 47.1709 32.5604C47.1304 32.4081 47.0899 32.2558 46.9435 32.0453C47.2761 31.9353 47.5823 31.8108 47.8884 31.6862C48.1946 31.5616 48.5007 31.437 48.8333 31.327C51.7942 30.3838 54.7337 29.4451 57.6732 28.5064C60.6127 27.5677 63.5522 26.629 66.5131 25.6858C67.0171 25.5398 67.5161 25.3747 68.015 25.2097C68.514 25.0446 69.0129 24.8796 69.5169 24.7336C70.3738 24.5537 71.1402 24.7144 71.514 25.4399C71.9081 26.2415 71.5559 26.9586 70.7597 27.367C70.2004 27.6452 69.5554 27.9414 68.8699 28.0853C67.8546 28.3377 66.8354 28.5957 65.8137 28.8544C62.6507 29.6552 59.463 30.4622 56.2895 31.1284C54.3036 31.5989 52.2638 31.8664 50.2239 32.1338Z" fill="url(#paint0_linear_6_385)"/>
<defs>
<linearGradient id="paint0_linear_6_385" x1="72.8929" y1="30.497" x2="9.48666" y2="47.3527" gradientUnits="userSpaceOnUse">
<stop stop-color="#3DB2A2"/>
<stop offset="1" stop-color="#008767"/>
</linearGradient>
</defs>
</svg>
