<svg width="207" height="22" viewBox="0 0 207 22" fill="none" xmlns="http://www.w3.org/2000/svg">
<path d="M0.53 21.1509V1.83088H10.04C11.58 1.83088 12.85 2.14088 13.85 2.76088C14.85 3.36088 15.59 4.18088 16.07 5.22088C16.57 6.26088 16.82 7.43088 16.82 8.73088C16.82 10.0509 16.54 11.2209 15.98 12.2409C15.42 13.2609 14.62 14.0609 13.58 14.6409C12.56 15.2009 11.34 15.4809 9.92 15.4809H5.36V21.1509H0.53ZM5.36 11.7609H8.84C9.86 11.7609 10.62 11.4809 11.12 10.9209C11.64 10.3609 11.9 9.62088 11.9 8.70088C11.9 7.70088 11.66 6.93088 11.18 6.39088C10.72 5.83088 9.99 5.55088 8.99 5.55088H5.36V11.7609ZM27.7534 21.4509C24.6134 21.4509 22.2234 20.6509 20.5834 19.0509C18.9434 17.4509 18.1234 14.9609 18.1234 11.5809C18.1234 8.00088 18.9434 5.43088 20.5834 3.87088C22.2234 2.31088 24.6134 1.53088 27.7534 1.53088C30.8934 1.53088 33.2834 2.31088 34.9234 3.87088C36.5634 5.43088 37.3834 8.00088 37.3834 11.5809C37.3834 14.9609 36.5634 17.4509 34.9234 19.0509C33.2834 20.6509 30.8934 21.4509 27.7534 21.4509ZM27.7534 17.3409C29.3734 17.3409 30.5534 16.8809 31.2934 15.9609C32.0534 15.0209 32.4334 13.5609 32.4334 11.5809C32.4334 9.42088 32.0534 7.90088 31.2934 7.02088C30.5534 6.12088 29.3734 5.67088 27.7534 5.67088C26.1134 5.67088 24.9134 6.12088 24.1534 7.02088C23.4134 7.90088 23.0434 9.42088 23.0434 11.5809C23.0434 13.5609 23.4134 15.0209 24.1534 15.9609C24.9134 16.8809 26.1134 17.3409 27.7534 17.3409ZM39.8464 21.1509V1.83088H44.6764V17.4309H53.7964V21.1509H39.8464ZM57.0308 21.1509V14.0409L50.1008 1.83088H55.1408L59.4608 9.84088L63.7808 1.83088H68.8208L61.8908 14.0409V21.1509H57.0308ZM70.0515 21.1509V1.83088H74.8215L80.0715 12.5409L85.2915 1.83088H90.0315V21.1509H85.2015V10.0509L81.3915 17.8509H78.7215L74.8815 10.0509V21.1509H70.0515ZM93.0788 21.1509V1.83088H107.329V5.55088H97.9088V9.60088H106.219V13.3809H97.9088V17.4309H107.329V21.1509H93.0788ZM109.632 21.1509V1.83088H119.292C121.572 1.83088 123.252 2.43088 124.332 3.63088C125.412 4.83088 125.952 6.44088 125.952 8.46088C125.952 9.76088 125.622 10.9009 124.962 11.8809C124.302 12.8609 123.402 13.5909 122.262 14.0709C122.542 14.2909 122.762 14.5409 122.922 14.8209C123.102 15.0809 123.292 15.4509 123.492 15.9309L125.772 21.1509H120.732L118.572 16.2309C118.392 15.8109 118.162 15.5109 117.882 15.3309C117.602 15.1309 117.202 15.0309 116.682 15.0309H114.462V21.1509H109.632ZM114.462 11.3109H118.032C118.972 11.3109 119.702 11.0809 120.222 10.6209C120.762 10.1409 121.032 9.42088 121.032 8.46088C121.032 6.52088 120.102 5.55088 118.242 5.55088H114.462V11.3109ZM134.561 21.4509C133.281 21.4509 132.081 21.3509 130.961 21.1509C129.861 20.9709 128.911 20.7009 128.111 20.3409V16.2309C128.991 16.6109 129.961 16.9209 131.021 17.1609C132.101 17.4009 133.121 17.5209 134.081 17.5209C135.281 17.5209 136.171 17.4109 136.751 17.1909C137.351 16.9709 137.651 16.4909 137.651 15.7509C137.651 15.2509 137.501 14.8509 137.201 14.5509C136.921 14.2509 136.451 13.9909 135.791 13.7709C135.151 13.5309 134.271 13.2509 133.151 12.9309C131.831 12.5309 130.781 12.0909 130.001 11.6109C129.221 11.1109 128.661 10.5109 128.321 9.81088C127.981 9.11088 127.811 8.25088 127.811 7.23088C127.811 5.39088 128.471 3.98088 129.791 3.00088C131.111 2.02088 133.061 1.53088 135.641 1.53088C136.761 1.53088 137.851 1.62088 138.911 1.80088C139.971 1.96088 140.831 2.15088 141.491 2.37088V6.51088C140.631 6.17088 139.761 5.92088 138.881 5.76088C138.021 5.60088 137.181 5.52088 136.361 5.52088C135.281 5.52088 134.401 5.62088 133.721 5.82088C133.061 6.02088 132.731 6.48088 132.731 7.20088C132.731 7.62088 132.851 7.96088 133.091 8.22088C133.331 8.46088 133.741 8.68088 134.321 8.88088C134.921 9.08088 135.731 9.32088 136.751 9.60088C138.331 10.0209 139.541 10.5309 140.381 11.1309C141.221 11.7109 141.801 12.3909 142.121 13.1709C142.441 13.9309 142.601 14.7909 142.601 15.7509C142.601 17.4509 141.941 18.8309 140.621 19.8909C139.301 20.9309 137.281 21.4509 134.561 21.4509ZM151.497 21.1509V0.930878H156.327V7.98088C156.867 7.58088 157.537 7.26088 158.337 7.02088C159.137 6.76088 159.997 6.63088 160.917 6.63088C162.817 6.63088 164.207 7.08088 165.087 7.98088C165.987 8.88088 166.437 10.2609 166.437 12.1209V21.1509H161.607V12.4509C161.607 11.6309 161.437 11.0509 161.097 10.7109C160.757 10.3709 160.147 10.2009 159.267 10.2009C158.747 10.2009 158.217 10.3209 157.677 10.5609C157.137 10.8009 156.687 11.1009 156.327 11.4609V21.1509H151.497ZM178.069 21.4509C176.269 21.4509 174.699 21.1609 173.359 20.5809C172.039 20.0009 171.009 19.1409 170.269 18.0009C169.549 16.8609 169.189 15.4609 169.189 13.8009V1.83088H174.019V13.3509C174.019 14.6909 174.369 15.6909 175.069 16.3509C175.769 17.0109 176.769 17.3409 178.069 17.3409C179.369 17.3409 180.369 17.0109 181.069 16.3509C181.769 15.6909 182.119 14.6909 182.119 13.3509V1.83088H186.949V13.8009C186.949 15.4609 186.579 16.8609 185.839 18.0009C185.119 19.1409 184.089 20.0009 182.749 20.5809C181.429 21.1609 179.869 21.4509 178.069 21.4509ZM189.846 21.1509V1.83088H200.046C201.986 1.83088 203.446 2.29088 204.426 3.21088C205.426 4.13088 205.926 5.43088 205.926 7.11088C205.926 8.13088 205.726 8.99088 205.326 9.69088C204.946 10.3709 204.436 10.9009 203.796 11.2809C204.676 11.6009 205.366 12.0709 205.866 12.6909C206.366 13.3109 206.616 14.2409 206.616 15.4809C206.616 17.3209 206.076 18.7309 204.996 19.7109C203.916 20.6709 202.366 21.1509 200.346 21.1509H189.846ZM194.676 9.69088H198.606C199.446 9.69088 200.056 9.50088 200.436 9.12088C200.816 8.74088 201.006 8.21088 201.006 7.53088C201.006 6.79088 200.816 6.24088 200.436 5.88088C200.056 5.50088 199.366 5.31088 198.366 5.31088H194.676V9.69088ZM194.676 17.7009H199.086C199.966 17.7009 200.616 17.5209 201.036 17.1609C201.476 16.8009 201.696 16.1609 201.696 15.2409C201.696 14.5009 201.486 13.9509 201.066 13.5909C200.646 13.2109 199.926 13.0209 198.906 13.0209H194.676V17.7009Z" fill="white"/>
</svg>
