<svg width="209" height="40" viewBox="0 0 209 40" fill="none" xmlns="http://www.w3.org/2000/svg">
<path d="M1.53 31V11.68H11.04C12.58 11.68 13.85 11.99 14.85 12.61C15.85 13.21 16.59 14.03 17.07 15.07C17.57 16.11 17.82 17.28 17.82 18.58C17.82 19.9 17.54 21.07 16.98 22.09C16.42 23.11 15.62 23.91 14.58 24.49C13.56 25.05 12.34 25.33 10.92 25.33H6.36V31H1.53ZM6.36 21.61H9.84C10.86 21.61 11.62 21.33 12.12 20.77C12.64 20.21 12.9 19.47 12.9 18.55C12.9 17.55 12.66 16.78 12.18 16.24C11.72 15.68 10.99 15.4 9.99 15.4H6.36V21.61ZM28.7534 31.3C25.6134 31.3 23.2234 30.5 21.5834 28.9C19.9434 27.3 19.1234 24.81 19.1234 21.43C19.1234 17.85 19.9434 15.28 21.5834 13.72C23.2234 12.16 25.6134 11.38 28.7534 11.38C31.8934 11.38 34.2834 12.16 35.9234 13.72C37.5634 15.28 38.3834 17.85 38.3834 21.43C38.3834 24.81 37.5634 27.3 35.9234 28.9C34.2834 30.5 31.8934 31.3 28.7534 31.3ZM28.7534 27.19C30.3734 27.19 31.5534 26.73 32.2934 25.81C33.0534 24.87 33.4334 23.41 33.4334 21.43C33.4334 19.27 33.0534 17.75 32.2934 16.87C31.5534 15.97 30.3734 15.52 28.7534 15.52C27.1134 15.52 25.9134 15.97 25.1534 16.87C24.4134 17.75 24.0434 19.27 24.0434 21.43C24.0434 23.41 24.4134 24.87 25.1534 25.81C25.9134 26.73 27.1134 27.19 28.7534 27.19ZM40.8464 31V11.68H45.6764V27.28H54.7964V31H40.8464ZM58.0308 31V23.89L51.1008 11.68H56.1408L60.4608 19.69L64.7808 11.68H69.8208L62.8908 23.89V31H58.0308ZM71.0515 31V11.68H75.8215L81.0715 22.39L86.2915 11.68H91.0315V31H86.2015V19.9L82.3915 27.7H79.7215L75.8815 19.9V31H71.0515ZM94.0788 31V11.68H108.329V15.4H98.9088V19.45H107.219V23.23H98.9088V27.28H108.329V31H94.0788ZM110.632 31V11.68H120.292C122.572 11.68 124.252 12.28 125.332 13.48C126.412 14.68 126.952 16.29 126.952 18.31C126.952 19.61 126.622 20.75 125.962 21.73C125.302 22.71 124.402 23.44 123.262 23.92C123.542 24.14 123.762 24.39 123.922 24.67C124.102 24.93 124.292 25.3 124.492 25.78L126.772 31H121.732L119.572 26.08C119.392 25.66 119.162 25.36 118.882 25.18C118.602 24.98 118.202 24.88 117.682 24.88H115.462V31H110.632ZM115.462 21.16H119.032C119.972 21.16 120.702 20.93 121.222 20.47C121.762 19.99 122.032 19.27 122.032 18.31C122.032 16.37 121.102 15.4 119.242 15.4H115.462V21.16ZM135.561 31.3C134.281 31.3 133.081 31.2 131.961 31C130.861 30.82 129.911 30.55 129.111 30.19V26.08C129.991 26.46 130.961 26.77 132.021 27.01C133.101 27.25 134.121 27.37 135.081 27.37C136.281 27.37 137.171 27.26 137.751 27.04C138.351 26.82 138.651 26.34 138.651 25.6C138.651 25.1 138.501 24.7 138.201 24.4C137.921 24.1 137.451 23.84 136.791 23.62C136.151 23.38 135.271 23.1 134.151 22.78C132.831 22.38 131.781 21.94 131.001 21.46C130.221 20.96 129.661 20.36 129.321 19.66C128.981 18.96 128.811 18.1 128.811 17.08C128.811 15.24 129.471 13.83 130.791 12.85C132.111 11.87 134.061 11.38 136.641 11.38C137.761 11.38 138.851 11.47 139.911 11.65C140.971 11.81 141.831 12 142.491 12.22V16.36C141.631 16.02 140.761 15.77 139.881 15.61C139.021 15.45 138.181 15.37 137.361 15.37C136.281 15.37 135.401 15.47 134.721 15.67C134.061 15.87 133.731 16.33 133.731 17.05C133.731 17.47 133.851 17.81 134.091 18.07C134.331 18.31 134.741 18.53 135.321 18.73C135.921 18.93 136.731 19.17 137.751 19.45C139.331 19.87 140.541 20.38 141.381 20.98C142.221 21.56 142.801 22.24 143.121 23.02C143.441 23.78 143.601 24.64 143.601 25.6C143.601 27.3 142.941 28.68 141.621 29.74C140.301 30.78 138.281 31.3 135.561 31.3ZM152.497 31V10.78H157.327V17.83C157.867 17.43 158.537 17.11 159.337 16.87C160.137 16.61 160.997 16.48 161.917 16.48C163.817 16.48 165.207 16.93 166.087 17.83C166.987 18.73 167.437 20.11 167.437 21.97V31H162.607V22.3C162.607 21.48 162.437 20.9 162.097 20.56C161.757 20.22 161.147 20.05 160.267 20.05C159.747 20.05 159.217 20.17 158.677 20.41C158.137 20.65 157.687 20.95 157.327 21.31V31H152.497ZM179.069 31.3C177.269 31.3 175.699 31.01 174.359 30.43C173.039 29.85 172.009 28.99 171.269 27.85C170.549 26.71 170.189 25.31 170.189 23.65V11.68H175.019V23.2C175.019 24.54 175.369 25.54 176.069 26.2C176.769 26.86 177.769 27.19 179.069 27.19C180.369 27.19 181.369 26.86 182.069 26.2C182.769 25.54 183.119 24.54 183.119 23.2V11.68H187.949V23.65C187.949 25.31 187.579 26.71 186.839 27.85C186.119 28.99 185.089 29.85 183.749 30.43C182.429 31.01 180.869 31.3 179.069 31.3ZM190.846 31V11.68H201.046C202.986 11.68 204.446 12.14 205.426 13.06C206.426 13.98 206.926 15.28 206.926 16.96C206.926 17.98 206.726 18.84 206.326 19.54C205.946 20.22 205.436 20.75 204.796 21.13C205.676 21.45 206.366 21.92 206.866 22.54C207.366 23.16 207.616 24.09 207.616 25.33C207.616 27.17 207.076 28.58 205.996 29.56C204.916 30.52 203.366 31 201.346 31H190.846ZM195.676 19.54H199.606C200.446 19.54 201.056 19.35 201.436 18.97C201.816 18.59 202.006 18.06 202.006 17.38C202.006 16.64 201.816 16.09 201.436 15.73C201.056 15.35 200.366 15.16 199.366 15.16H195.676V19.54ZM195.676 27.55H200.086C200.966 27.55 201.616 27.37 202.036 27.01C202.476 26.65 202.696 26.01 202.696 25.09C202.696 24.35 202.486 23.8 202.066 23.44C201.646 23.06 200.926 22.87 199.906 22.87H195.676V27.55Z" fill="url(#paint0_linear_6_250)"/>
<defs>
<linearGradient id="paint0_linear_6_250" x1="0" y1="20" x2="209" y2="20" gradientUnits="userSpaceOnUse">
<stop stop-color="#3DB2A2"/>
<stop offset="1" stop-color="#008767"/>
</linearGradient>
</defs>
</svg>
